<?xml version="1.0" encoding="utf-8"?>
<!-- Generator: Adobe Illustrator 28.0.0, SVG Export Plug-In . SVG Version: 6.00 Build 0)  -->
<svg version="1.1" id="Layer_1" xmlns="http://www.w3.org/2000/svg" xmlns:xlink="http://www.w3.org/1999/xlink" x="0px" y="0px"
	 viewBox="0 0 394 35" style="enable-background:new 0 0 394 35;" xml:space="preserve">
<g>
	<path d="M8.4,7.8l8.8,14.5V7.7c0-0.9,0.2-1.7,0.6-2.1s0.9-0.7,1.5-0.7c0.7,0,1.2,0.2,1.5,0.7c0.4,0.5,0.6,1.2,0.6,2.1V27
		c0,2.2-0.8,3.2-2.5,3.2c-0.4,0-0.8-0.1-1.1-0.2c-0.3-0.1-0.6-0.3-0.9-0.6s-0.6-0.6-0.8-1c-0.2-0.4-0.5-0.8-0.7-1.1L6.8,13v14.4
		c0,0.9-0.2,1.6-0.6,2.1s-0.9,0.7-1.5,0.7S3.5,30,3.2,29.5c-0.4-0.5-0.6-1.2-0.6-2.1v-19c0-0.8,0.1-1.4,0.2-1.9C3,6,3.3,5.6,3.8,5.3
		s0.9-0.5,1.5-0.5c0.4,0,0.8,0.1,1,0.2c0.3,0.1,0.5,0.3,0.8,0.6s0.4,0.6,0.7,1C7.9,7,8.1,7.4,8.4,7.8z"/>
	<path d="M40.3,27.1L39.2,24h-9.1L29,27.1c-0.4,1.2-0.8,2.1-1.1,2.5c-0.3,0.4-0.8,0.6-1.5,0.6c-0.6,0-1.1-0.2-1.5-0.7
		s-0.7-1-0.7-1.6c0-0.3,0.1-0.7,0.2-1s0.3-0.9,0.5-1.5l5.7-16c0.2-0.5,0.4-1,0.6-1.7s0.5-1.2,0.7-1.6c0.3-0.4,0.6-0.8,1-1
		s0.9-0.4,1.6-0.4c0.6,0,1.2,0.1,1.6,0.4s0.8,0.6,1,1c0.3,0.4,0.5,0.9,0.7,1.3c0.2,0.5,0.4,1.1,0.7,1.9l5.9,15.9
		c0.5,1.2,0.7,2.1,0.7,2.6c0,0.6-0.2,1.1-0.7,1.6c-0.4,0.5-1,0.7-1.6,0.7c-0.4,0-0.7-0.1-0.9-0.2s-0.5-0.3-0.6-0.6
		c-0.2-0.2-0.4-0.6-0.6-1.1S40.4,27.4,40.3,27.1z M31.2,20.2H38l-3.4-10.1L31.2,20.2z"/>
	<path d="M54.4,7.8l8.8,14.5V7.7c0-0.9,0.2-1.7,0.6-2.1s0.9-0.7,1.5-0.7c0.7,0,1.2,0.2,1.5,0.7c0.4,0.5,0.6,1.2,0.6,2.1V27
		c0,2.2-0.8,3.2-2.5,3.2c-0.4,0-0.8-0.1-1.1-0.2c-0.3-0.1-0.6-0.3-0.9-0.6c-0.3-0.3-0.6-0.6-0.8-1s-0.5-0.8-0.7-1.1L52.8,13v14.4
		c0,0.9-0.2,1.6-0.6,2.1s-0.9,0.7-1.5,0.7s-1.2-0.2-1.5-0.7c-0.4-0.5-0.6-1.2-0.6-2.1v-19c0-0.8,0.1-1.4,0.2-1.9
		c0.2-0.5,0.5-0.9,1-1.2s0.9-0.5,1.5-0.5c0.4,0,0.8,0.1,1,0.2c0.3,0.1,0.5,0.3,0.8,0.6s0.4,0.6,0.7,1C53.9,7,54.1,7.4,54.4,7.8z"/>
	<path d="M82.2,4.9c2.3,0,4.3,0.5,6,1.6S91.1,9,92,10.9s1.3,4.1,1.3,6.7c0,1.9-0.2,3.6-0.7,5.2c-0.5,1.6-1.2,2.9-2.1,4
		s-2.1,2-3.5,2.6s-2.9,0.9-4.7,0.9c-1.8,0-3.3-0.3-4.7-0.9c-1.4-0.6-2.5-1.5-3.5-2.6c-0.9-1.1-1.6-2.5-2.1-4.1s-0.7-3.3-0.7-5.1
		c0-1.9,0.2-3.6,0.7-5.2s1.2-2.9,2.2-4c0.9-1.1,2.1-2,3.4-2.5S80.5,4.9,82.2,4.9z M88.7,17.5c0-1.8-0.3-3.4-0.8-4.7s-1.3-2.3-2.3-3
		s-2.1-1-3.4-1c-0.9,0-1.8,0.2-2.5,0.6c-0.8,0.4-1.4,0.9-2,1.6c-0.6,0.7-1,1.6-1.3,2.7c-0.3,1.1-0.5,2.4-0.5,3.7
		c0,1.4,0.2,2.7,0.5,3.8s0.8,2.1,1.4,2.8s1.3,1.3,2,1.7c0.8,0.4,1.6,0.6,2.5,0.6c1.2,0,2.2-0.3,3.2-1c1-0.6,1.8-1.6,2.3-2.9
		C88.4,21.1,88.7,19.4,88.7,17.5z"/>
	<path d="M106.8,29.8h-6.9c-1,0-1.7-0.2-2.1-0.7s-0.6-1.3-0.6-2.3V8.3c0-1.1,0.2-1.9,0.7-2.3S99,5.3,100,5.3h7.3
		c1.1,0,2,0.1,2.8,0.2s1.5,0.4,2.1,0.8c0.5,0.3,1,0.8,1.4,1.3s0.7,1.1,0.9,1.8c0.2,0.6,0.3,1.3,0.3,2c0,2.5-1.1,4.3-3.4,5.4
		c3,1,4.4,3,4.4,6c0,1.4-0.3,2.6-1,3.7s-1.5,1.9-2.6,2.4c-0.7,0.3-1.5,0.5-2.4,0.7C109,29.8,107.9,29.8,106.8,29.8z M101.7,9v6.4
		h4.2c1.1,0,2-0.1,2.6-0.4c0.6-0.2,1.1-0.7,1.4-1.3c0.3-0.5,0.4-1,0.4-1.6c0-1.2-0.4-2.1-1.2-2.5s-2-0.6-3.7-0.6
		C105.4,9,101.7,9,101.7,9z M106.4,18.9h-4.7v7.2h4.9c3.1,0,4.6-1.2,4.6-3.6c0-1.2-0.4-2.1-1.2-2.7C109.2,19.2,108,18.9,106.4,18.9z
		"/>
	<path d="M119.9,27.2V7.9c0-1,0.2-1.8,0.6-2.3s1-0.8,1.6-0.8c0.7,0,1.2,0.2,1.7,0.7c0.4,0.5,0.6,1.3,0.6,2.3v19.4
		c0,1-0.2,1.8-0.6,2.3s-1,0.8-1.7,0.8s-1.2-0.3-1.6-0.8S119.9,28.2,119.9,27.2z"/>
	<path d="M134,7.9v17.9h9.2c0.7,0,1.3,0.2,1.7,0.6c0.4,0.4,0.6,0.9,0.6,1.5s-0.2,1.1-0.6,1.5c-0.4,0.4-1,0.6-1.7,0.6h-11
		c-1,0-1.7-0.2-2.1-0.7c-0.4-0.5-0.7-1.3-0.7-2.3V7.9c0-1,0.2-1.8,0.6-2.3c0.4-0.5,1-0.8,1.6-0.8c0.7,0,1.2,0.2,1.7,0.7
		C133.8,6.1,134,6.9,134,7.9z"/>
	<path d="M153,7.9v17.9h9.2c0.7,0,1.3,0.2,1.7,0.6c0.4,0.4,0.6,0.9,0.6,1.5s-0.2,1.1-0.6,1.5c-0.4,0.4-1,0.6-1.7,0.6h-11
		c-1,0-1.7-0.2-2.1-0.7c-0.4-0.5-0.7-1.3-0.7-2.3V7.9c0-1,0.2-1.8,0.6-2.3c0.4-0.5,1-0.8,1.6-0.8c0.7,0,1.2,0.2,1.7,0.7
		C152.8,6.1,153,6.9,153,7.9z"/>
	<path d="M167.7,27.2V7.9c0-1,0.2-1.8,0.6-2.3c0.4-0.5,1-0.8,1.6-0.8c0.7,0,1.2,0.2,1.7,0.7c0.4,0.5,0.6,1.3,0.6,2.3v19.4
		c0,1-0.2,1.8-0.6,2.3s-1,0.8-1.7,0.8s-1.2-0.3-1.6-0.8S167.7,28.2,167.7,27.2z"/>
	<path d="M187.2,4.9c2.3,0,4.3,0.5,6,1.6s2.9,2.5,3.8,4.4c0.9,1.9,1.3,4.1,1.3,6.7c0,1.9-0.2,3.6-0.7,5.2c-0.5,1.6-1.2,2.9-2.1,4
		c-0.9,1.1-2.1,2-3.5,2.6s-2.9,0.9-4.7,0.9s-3.3-0.3-4.7-0.9c-1.4-0.6-2.5-1.5-3.5-2.6c-0.9-1.1-1.6-2.5-2.1-4.1s-0.7-3.3-0.7-5.1
		c0-1.9,0.2-3.6,0.7-5.2s1.2-2.9,2.2-4c0.9-1.1,2.1-2,3.4-2.5S185.5,4.9,187.2,4.9z M193.7,17.5c0-1.8-0.3-3.4-0.8-4.7
		s-1.3-2.3-2.3-3s-2.1-1-3.4-1c-0.9,0-1.8,0.2-2.5,0.6c-0.8,0.4-1.4,0.9-2,1.6c-0.6,0.7-1,1.6-1.3,2.7c-0.3,1.1-0.5,2.4-0.5,3.7
		c0,1.4,0.2,2.7,0.5,3.8s0.8,2.1,1.4,2.8c0.6,0.7,1.3,1.3,2,1.7c0.8,0.4,1.6,0.6,2.5,0.6c1.2,0,2.2-0.3,3.2-1c1-0.6,1.8-1.6,2.3-2.9
		C193.4,21.1,193.7,19.4,193.7,17.5z"/>
	<path d="M208.1,7.8l8.8,14.5V7.7c0-0.9,0.2-1.7,0.6-2.1s0.9-0.7,1.5-0.7c0.7,0,1.2,0.2,1.5,0.7s0.6,1.2,0.6,2.1V27
		c0,2.2-0.8,3.2-2.5,3.2c-0.4,0-0.8-0.1-1.1-0.2c-0.3-0.1-0.6-0.3-0.9-0.6c-0.3-0.3-0.6-0.6-0.8-1s-0.5-0.8-0.7-1.1L206.5,13v14.4
		c0,0.9-0.2,1.6-0.6,2.1s-0.9,0.7-1.5,0.7s-1.2-0.2-1.5-0.7c-0.4-0.5-0.6-1.2-0.6-2.1v-19c0-0.8,0.1-1.4,0.2-1.9
		c0.2-0.5,0.5-0.9,1-1.2c0.4-0.3,0.9-0.5,1.5-0.5c0.4,0,0.8,0.1,1,0.2c0.3,0.1,0.5,0.3,0.8,0.6s0.4,0.6,0.7,1
		C207.6,7,207.9,7.4,208.1,7.8z"/>
	<path d="M240,27.1l-1.1-3.1h-9.1l-1.1,3.2c-0.4,1.2-0.8,2.1-1.1,2.5s-0.8,0.6-1.5,0.6c-0.6,0-1.1-0.2-1.5-0.7s-0.7-1-0.7-1.6
		c0-0.3,0.1-0.7,0.2-1s0.3-0.9,0.5-1.5l5.7-16c0.2-0.5,0.4-1,0.6-1.7c0.2-0.6,0.5-1.2,0.7-1.6c0.3-0.4,0.6-0.8,1-1s0.9-0.4,1.6-0.4
		c0.6,0,1.2,0.1,1.6,0.4s0.8,0.6,1,1c0.3,0.4,0.5,0.9,0.7,1.3c0.2,0.5,0.4,1.1,0.7,1.9l5.9,15.9c0.5,1.2,0.7,2.1,0.7,2.6
		c0,0.6-0.2,1.1-0.7,1.6c-0.4,0.5-1,0.7-1.6,0.7c-0.4,0-0.7-0.1-0.9-0.2c-0.3-0.1-0.5-0.3-0.6-0.6s-0.4-0.6-0.6-1.1
		S240.1,27.4,240,27.1z M231,20.2h6.7l-3.4-10.1L231,20.2z"/>
	<path d="M248.4,27.2V7.9c0-1,0.2-1.8,0.6-2.3c0.4-0.5,1-0.8,1.6-0.8c0.7,0,1.2,0.2,1.7,0.7c0.4,0.5,0.6,1.3,0.6,2.3v19.4
		c0,1-0.2,1.8-0.6,2.3s-1,0.8-1.7,0.8s-1.2-0.3-1.6-0.8C248.6,29,248.4,28.2,248.4,27.2z"/>
	<path d="M264.1,19.3h-1.6v7.9c0,1-0.2,1.8-0.6,2.3s-1,0.7-1.6,0.7c-0.7,0-1.3-0.3-1.7-0.8s-0.6-1.3-0.6-2.3V8.3
		c0-1.1,0.2-1.8,0.7-2.3s1.1-0.7,2.1-0.7h7.4c1,0,1.9,0,2.6,0.1s1.4,0.3,2,0.6c0.7,0.3,1.3,0.8,1.9,1.4c0.5,0.6,1,1.3,1.2,2.1
		c0.3,0.8,0.4,1.6,0.4,2.5c0,1.8-0.5,3.3-1.4,4.4s-2.4,1.9-4.3,2.3c0.8,0.5,1.6,1.2,2.3,2.1s1.4,1.9,2,2.9s1,2,1.3,2.8
		s0.5,1.4,0.5,1.7s-0.1,0.6-0.3,1c-0.2,0.3-0.4,0.6-0.8,0.8s-0.7,0.3-1.1,0.3c-0.5,0-0.9-0.1-1.3-0.4c-0.3-0.3-0.6-0.6-0.9-1
		c-0.2-0.4-0.6-1-1-1.8l-1.8-3.3c-0.7-1.2-1.2-2.1-1.8-2.8c-0.5-0.6-1-1.1-1.6-1.3S264.9,19.3,264.1,19.3z M266.7,9h-4.2v6.8h4.1
		c1.1,0,2-0.1,2.8-0.3c0.7-0.2,1.3-0.6,1.7-1.1c0.4-0.5,0.6-1.2,0.6-2.1c0-0.7-0.2-1.3-0.5-1.8s-0.8-0.9-1.3-1.2
		C269.3,9.1,268.3,9,266.7,9z"/>
	<path d="M295.4,9.1h-10.3v6h9.4c0.7,0,1.2,0.2,1.6,0.5c0.3,0.3,0.5,0.8,0.5,1.3s-0.2,1-0.5,1.4s-0.9,0.5-1.6,0.5h-9.4v7h10.6
		c0.7,0,1.3,0.2,1.6,0.5c0.4,0.4,0.5,0.8,0.5,1.4c0,0.6-0.2,1.1-0.5,1.4c-0.4,0.4-0.9,0.5-1.6,0.5h-12.4c-1,0-1.7-0.2-2.1-0.7
		s-0.7-1.3-0.7-2.3V8.3c0-0.7,0.1-1.3,0.3-1.8c0.2-0.5,0.5-0.8,0.9-1s0.9-0.3,1.6-0.3h12c0.7,0,1.3,0.2,1.6,0.5
		c0.4,0.4,0.5,0.8,0.5,1.4s-0.2,1-0.5,1.4S296.1,9.1,295.4,9.1z"/>
	<path d="M318.6,22.5c0,1.5-0.4,2.8-1,4c-0.7,1.2-1.7,2.1-3.1,2.8c-1.3,0.7-2.9,1-4.8,1c-2.2,0-4-0.5-5.5-1.4
		c-1-0.7-1.9-1.5-2.5-2.6s-1-2.2-1-3.2c0-0.6,0.2-1.1,0.6-1.6c0.4-0.4,0.9-0.6,1.5-0.6c0.5,0,0.9,0.2,1.2,0.5
		c0.3,0.3,0.6,0.8,0.9,1.5c0.3,0.8,0.6,1.4,0.9,2c0.3,0.5,0.8,1,1.4,1.3s1.4,0.5,2.4,0.5c1.3,0,2.4-0.3,3.3-1
		c0.8-0.7,1.3-1.5,1.3-2.6c0-0.8-0.2-1.5-0.7-2s-1-0.9-1.8-1.2c-0.7-0.3-1.7-0.6-2.9-0.9c-1.6-0.4-3-0.9-4.1-1.4
		c-1.1-0.6-2-1.3-2.6-2.3s-1-2.1-1-3.6c0-1.4,0.3-2.6,1-3.6c0.7-1,1.6-1.9,2.9-2.4c1.3-0.6,2.8-0.8,4.5-0.8c1.4,0,2.6,0.2,3.6,0.6
		s1.8,0.9,2.5,1.5s1.1,1.3,1.5,2c0.3,0.7,0.5,1.3,0.5,2c0,0.6-0.2,1.1-0.6,1.6s-0.9,0.7-1.4,0.7s-0.9-0.1-1.2-0.4
		c-0.3-0.3-0.6-0.8-0.9-1.4c-0.4-0.9-0.9-1.7-1.5-2.2s-1.5-0.8-2.8-0.8c-1.2,0-2.1,0.3-2.8,0.8c-0.7,0.6-1.1,1.2-1.1,2
		c0,0.5,0.1,0.9,0.4,1.3c0.2,0.4,0.6,0.7,1,0.9c0.4,0.3,0.9,0.5,1.3,0.6s1.2,0.4,2.2,0.6c1.3,0.3,2.4,0.7,3.4,1.1
		c1,0.4,1.9,0.9,2.6,1.4c0.7,0.6,1.3,1.3,1.7,2.1S318.6,21.2,318.6,22.5z"/>
	<path d="M323.7,30.3c-0.6,0-1.2-0.2-1.6-0.7c-0.5-0.4-0.7-1.1-0.7-1.9c0-0.7,0.2-1.3,0.7-1.8c0.4-0.5,1-0.7,1.6-0.7
		s1.2,0.2,1.6,0.7c0.5,0.5,0.7,1.1,0.7,1.8c0,0.8-0.2,1.4-0.7,1.9C324.9,30,324.3,30.3,323.7,30.3z"/>
	<path d="M345.8,24.6c0,0.6-0.2,1.2-0.5,1.8s-0.8,1.3-1.4,1.9c-0.6,0.6-1.4,1.1-2.4,1.4s-2.1,0.5-3.3,0.5c-2.6,0-4.6-0.8-6.1-2.5
		c-1.5-1.6-2.2-3.9-2.2-6.6c0-1.9,0.3-3.5,1-5c0.7-1.4,1.6-2.6,2.9-3.3c1.3-0.8,2.8-1.2,4.5-1.2c1.1,0,2.1,0.2,3,0.5
		s1.7,0.8,2.3,1.3c0.6,0.5,1.1,1.1,1.4,1.8s0.5,1.2,0.5,1.7s-0.2,1-0.6,1.4s-0.8,0.6-1.4,0.6c-0.3,0-0.6-0.1-0.9-0.3
		s-0.5-0.5-0.8-0.9c-0.5-0.8-1-1.5-1.6-1.9s-1.3-0.6-2.1-0.6c-1.2,0-2.2,0.5-3,1.6s-1.1,2.5-1.1,4.3c0,0.9,0.1,1.7,0.3,2.4
		c0.2,0.7,0.5,1.3,0.8,1.8c0.4,0.5,0.8,0.9,1.3,1.2s1.1,0.4,1.7,0.4c0.8,0,1.6-0.2,2.2-0.6c0.6-0.4,1.1-1.1,1.6-1.9
		c0.3-0.5,0.5-0.9,0.8-1.2s0.7-0.4,1.1-0.4c0.5,0,0.9,0.2,1.3,0.6C345.6,23.7,345.8,24.1,345.8,24.6z"/>
	<path d="M365.1,21c0,1.4-0.2,2.6-0.6,3.8s-1,2.1-1.7,3c-0.7,0.8-1.6,1.5-2.6,1.9s-2.2,0.7-3.4,0.7c-1.3,0-2.4-0.2-3.4-0.7
		c-1-0.4-1.9-1.1-2.6-1.9c-0.7-0.8-1.3-1.8-1.7-2.9c-0.4-1.1-0.6-2.4-0.6-3.8c0-1.4,0.2-2.7,0.6-3.8c0.4-1.2,0.9-2.1,1.7-2.9
		c0.7-0.8,1.6-1.4,2.6-1.9s2.2-0.7,3.4-0.7c1.3,0,2.4,0.2,3.4,0.7s1.9,1.1,2.7,1.9c0.7,0.8,1.3,1.8,1.7,2.9
		C364.9,18.3,365.1,19.6,365.1,21z M360.9,21c0-1.9-0.4-3.3-1.1-4.4s-1.8-1.6-3-1.6c-0.8,0-1.5,0.2-2.2,0.7s-1.1,1.1-1.4,2.1
		c-0.3,0.9-0.5,2-0.5,3.2s0.2,2.2,0.5,3.1c0.3,0.9,0.8,1.6,1.4,2.1s1.3,0.7,2.2,0.7c1.3,0,2.3-0.5,3-1.6
		C360.5,24.3,360.9,22.8,360.9,21z"/>
	<path d="M382.3,21.3v6.1c0,1-0.2,1.7-0.6,2.2s-0.9,0.7-1.6,0.7c-0.6,0-1.1-0.2-1.5-0.7s-0.6-1.2-0.6-2.2v-7.3c0-1.2,0-2-0.1-2.7
		s-0.3-1.2-0.6-1.6c-0.3-0.4-0.8-0.6-1.5-0.6c-1.4,0-2.3,0.5-2.7,1.5c-0.4,1-0.7,2.5-0.7,4.4v6.2c0,0.9-0.2,1.7-0.6,2.2
		s-0.9,0.7-1.6,0.7c-0.6,0-1.2-0.2-1.6-0.7s-0.6-1.2-0.6-2.2v-13c0-0.9,0.2-1.5,0.5-2c0.4-0.4,0.8-0.7,1.4-0.7s1,0.2,1.4,0.6
		c0.4,0.4,0.6,1,0.6,1.7v0.4c0.7-0.9,1.5-1.6,2.3-2.1c0.8-0.4,1.7-0.7,2.8-0.7c1.1,0,2,0.2,2.7,0.7s1.4,1.2,1.9,2.1
		c0.7-0.9,1.5-1.6,2.3-2.1s1.7-0.7,2.7-0.7c1.1,0,2.1,0.2,3,0.7c0.8,0.5,1.4,1.2,1.9,2.1c0.4,0.8,0.5,2.1,0.5,3.9v8.9
		c0,1-0.2,1.7-0.6,2.2s-0.9,0.7-1.6,0.7c-0.6,0-1.2-0.2-1.6-0.7s-0.6-1.2-0.6-2.2v-7.7c0-1,0-1.8-0.1-2.4c-0.1-0.6-0.3-1.1-0.6-1.5
		c-0.3-0.4-0.8-0.6-1.5-0.6c-0.6,0-1.1,0.2-1.6,0.5c-0.5,0.4-0.9,0.8-1.2,1.4C382.5,18,382.3,19.3,382.3,21.3z"/>
</g>
</svg>
